<svg width="150" height="150" viewBox="0 0 150 150" fill="none" xmlns="http://www.w3.org/2000/svg">
<rect width="150" height="150" fill="#F5F5F5"/>
<g clip-path="url(#clip0_0_1)">
<rect width="150" height="150" fill="white"/>
<rect width="150" height="150" fill="#F48445"/>
<path d="M85.5 129H73.6384H39.0587H71.5587V81.5V33.5L47 38.5V30L71.5587 22H85.5V129Z" fill="white"/>
<path d="M78.4286 118.5C70.3333 118.5 63.2857 116.691 57.5714 114.361C51.8571 111.958 47 108.682 43 104.532L52.4334 98.6007C55.9572 102.169 59.3499 104.501 63.6356 106.395C67.9213 108.215 71.6905 109.5 77.5 109.5C84.6429 109.5 90.5799 108.099 94.2942 105.478C98.1037 102.856 98.4213 99.3017 98.4213 94.9329C98.4213 91.2923 97.6125 90.1125 95.5 88C93 85.5 88.6025 85 85.5 84V74.5L71.5 81.6374C62.3571 80.0355 57.2906 77.0472 52.4334 73.8435C47.6715 70.5669 46 65.7587 46 59.8609C46 56.5115 46.8095 53.5262 48.4286 50.9049C50.0476 48.2836 52.2857 46.0993 55.1429 44.3517C58.0952 42.6042 61.5714 41.2936 65.5714 40.4199C69.6667 39.4733 74.1429 39 79 39C86.5238 39 92.9524 40.0558 98.2857 42.1674C103.714 44.2789 108.286 47.3735 112 51.451L103 56.4751C100.238 53.5626 96.9048 51.269 93 49.5943C89.0952 47.9196 84.2381 47.0822 78.4286 47.0822C72.0476 47.0822 67 48.138 63.2857 50.2496C59.6667 52.2883 57.8571 55.3829 57.8571 59.5332C57.8571 63.1739 58.2296 65.9903 61.2772 67.8834C64.4201 69.7037 65.2143 70.9078 71.5 72V81.6374L85.5 74.5C95.3095 76.1747 99.9362 78.2152 104.317 81.6374C108.698 85.0596 110.803 89.2535 110.803 94.9329C110.803 98.428 110.653 101.692 109.034 104.532C107.51 107.371 106.381 109.665 103.429 111.631C100.476 113.597 96.8571 115.126 92.5714 116.218C88.381 117.31 83.7619 118.5 78.4286 118.5Z" fill="black"/>
</g>
<defs>
<clipPath id="clip0_0_1">
<rect width="150" height="150" fill="white"/>
</clipPath>
</defs>
</svg>
